<svg width="28" height="24" viewBox="0 0 28 24" fill="none" xmlns="http://www.w3.org/2000/svg">
<path d="M27.9567 23.3093V7.48749C26.6852 8.76511 24.0211 11.4719 23.5356 12.078C23.0502 12.6842 22.8999 13.5785 22.8854 13.9499V20.2786C23.1975 21.99 24.4314 22.923 25.0093 23.1756C27.2978 24.6017 27.9278 23.8589 27.9567 23.3093Z" fill="#009966"/>
<path d="M12.6563 16.8387L5.41796 9.48488L5.33127 19.3345L5.11455 20.4487C4.87183 21.9105 3.22188 23.0782 2.42724 23.4794C0.589474 24.3707 0.0433437 23.8508 0 23.4794V2.08653C0.901548 -0.730186 3.12074 -0.0973153 4.11765 0.57121C6.93498 3.4533 12.717 9.36901 13.3065 9.97514C13.896 10.5813 14.5635 10.2277 14.8235 9.97514L23.969 0.615778C26.5697 -0.917373 27.7399 0.83862 28 1.90826V4.40409C24.3302 8.13298 16.7306 15.8403 15.6904 16.8387C14.6502 17.837 13.2343 17.2546 12.6563 16.8387Z" fill="#5815D9"/>
</svg>
