<svg width="188" height="108" viewBox="0 0 188 108" fill="none" xmlns="http://www.w3.org/2000/svg">
<path d="M121.913 46.6185V14.975C119.37 17.5302 114.042 22.9438 113.071 24.1561C112.1 25.3683 111.8 27.157 111.771 27.8998V40.5572C112.395 43.9801 114.863 45.846 116.019 46.3511C120.596 49.2035 121.856 47.7179 121.913 46.6185Z" fill="#009966"/>
<path d="M91.3127 33.6773L76.8359 18.9698L76.6625 38.669L76.2291 40.8974C75.7437 43.8211 72.4438 46.1565 70.8545 46.9587C67.1789 48.7414 66.0867 47.7015 66 46.9587V4.17307C67.8031 -1.46037 72.2415 -0.194631 74.2353 1.14242C79.87 6.9066 91.4341 18.738 92.613 19.9503C93.792 21.1625 95.1269 20.4554 95.6471 19.9503L113.938 1.23156C119.139 -1.83475 121.48 1.67724 122 3.81652V8.80818C114.66 16.266 99.4613 31.6807 97.3808 33.6773C95.3003 35.674 92.4685 34.5093 91.3127 33.6773Z" fill="#5815D9"/>
<path d="M121.801 70.9316L106.061 107.955H97.787L103.543 95.179L93.335 70.9316H101.924L107.725 86.6316L113.481 70.9316H121.801Z" fill="#1C2836"/>
<path d="M82.505 70.6616C85.4432 70.6616 87.7816 71.6213 89.5203 73.5407C91.2892 75.4301 92.1735 78.0393 92.1735 81.3683V96.0338H84.5287V82.4029C84.5287 80.7235 84.0941 79.4189 83.2245 78.4892C82.3553 77.5595 81.1861 77.0946 79.7169 77.0946C78.248 77.0946 77.0788 77.5595 76.2093 78.4892C75.3401 79.4189 74.9052 80.7235 74.9052 82.4029V96.0338H67.2154V70.9316H74.9052V74.2605C75.6848 73.1509 76.7341 72.2811 78.053 71.6513C79.3723 70.9915 80.8563 70.6616 82.505 70.6616Z" fill="#1C2836"/>
<path d="M51.3539 96.3937C48.8954 96.3937 46.6771 95.8686 44.6984 94.8191C42.7496 93.7694 41.2056 92.2698 40.0666 90.3206C38.9571 88.3711 38.4027 86.0918 38.4027 83.4826C38.4027 80.9034 38.9722 78.6391 40.1115 76.6897C41.2506 74.7104 42.8097 73.1959 44.7884 72.1462C46.767 71.0965 48.9853 70.5717 51.4439 70.5717C53.9021 70.5717 56.1207 71.0965 58.0994 72.1462C60.078 73.1959 61.6369 74.7104 62.7762 76.6897C63.9152 78.6391 64.485 80.9034 64.485 83.4826C64.485 86.0618 63.9004 88.3411 62.7312 90.3206C61.5919 92.2698 60.018 93.7694 58.0094 94.8191C56.0308 95.8686 53.8122 96.3937 51.3539 96.3937ZM51.3539 89.7358C52.8228 89.7358 54.0669 89.1959 55.0864 88.1161C56.1355 87.0365 56.6603 85.492 56.6603 83.4826C56.6603 81.4732 56.1506 79.9287 55.1314 78.8491C54.142 77.7694 52.9128 77.2296 51.4439 77.2296C49.9448 77.2296 48.7007 77.7694 47.7114 78.8491C46.7221 79.8987 46.2274 81.4433 46.2274 83.4826C46.2274 85.492 46.707 87.0365 47.6664 88.1161C48.6557 89.1959 49.8847 89.7358 51.3539 89.7358Z" fill="#1C2836"/>
<path d="M35.7509 64.4536V96.0338H28.061V77.0946L21.0008 96.0338H14.795L7.68981 77.0496V96.0338H0V64.4536H9.08387L17.9429 86.3167L26.712 64.4536H35.7509Z" fill="#1C2836"/>
<path d="M169.203 74.4854C169.952 73.3158 170.986 72.3711 172.306 71.6513C173.625 70.9316 175.169 70.5717 176.937 70.5717C179.006 70.5717 180.88 71.0965 182.559 72.1462C184.238 73.1959 185.557 74.6954 186.516 76.6448C187.505 78.5942 188 80.8584 188 83.4376C188 86.0168 187.505 88.2961 186.516 90.2756C185.557 92.2248 184.238 93.7395 182.559 94.8191C180.88 95.8686 179.006 96.3937 176.937 96.3937C175.199 96.3937 173.655 96.0338 172.306 95.314C170.986 94.5942 169.952 93.6643 169.203 92.5249V108H161.513V70.9316H169.203V74.4854ZM180.175 83.4376C180.175 81.5182 179.636 80.0187 178.556 78.939C177.507 77.8294 176.203 77.2746 174.644 77.2746C173.115 77.2746 171.811 77.8294 170.732 78.939C169.682 80.0487 169.158 81.5632 169.158 83.4826C169.158 85.402 169.682 86.9165 170.732 88.0262C171.811 89.1358 173.115 89.6908 174.644 89.6908C176.173 89.6908 177.477 89.1358 178.556 88.0262C179.636 86.8866 180.175 85.357 180.175 83.4376Z" fill="#1C2836"/>
<path d="M153.467 68.3224C152.118 68.3224 151.009 67.9325 150.139 67.1527C149.3 66.343 148.88 65.3533 148.88 64.1837C148.88 62.9841 149.3 61.9944 150.139 61.2146C151.009 60.4049 152.118 60 153.467 60C154.786 60 155.865 60.4049 156.705 61.2146C157.574 61.9944 158.009 62.9841 158.009 64.1837C158.009 65.3533 157.574 66.343 156.705 67.1527C155.865 67.9325 154.786 68.3224 153.467 68.3224ZM157.289 70.9316V96.0338H149.599V70.9316H157.289Z" fill="#1C2836"/>
<path d="M147.089 64.4536V70.6167H138.725V96.0338H131.035V70.6167H122.671V64.4536H147.089Z" fill="#1C2836"/>
</svg>
