<svg width="188" height="109" viewBox="0 0 188 109" fill="none" xmlns="http://www.w3.org/2000/svg">
<path d="M121.913 47.2518V15.6083C119.37 18.1635 114.042 23.5771 113.071 24.7894C112.1 26.0016 111.8 27.7903 111.771 28.5331V41.1905C112.395 44.6134 114.863 46.4793 116.019 46.9844C120.596 49.8368 121.856 48.3512 121.913 47.2518Z" fill="#009966"/>
<path d="M91.3127 34.3106L76.8359 19.6031L76.6625 39.3023L76.2291 41.5307C75.7437 44.4544 72.4438 46.7898 70.8545 47.592C67.1789 49.3747 66.0867 48.3348 66 47.592V4.80637C67.8031 -0.827072 72.2415 0.43867 74.2353 1.77572C79.87 7.5399 91.4341 19.3713 92.613 20.5836C93.792 21.7958 95.1269 21.0887 95.6471 20.5836L113.938 1.86486C119.139 -1.20145 121.48 2.31054 122 4.44982V9.44148C114.66 16.8993 99.4613 32.314 97.3808 34.3106C95.3003 36.3073 92.4685 35.1426 91.3127 34.3106Z" fill="#5815D9"/>
<path d="M121.801 71.5649L106.061 108.588H97.787L103.543 95.8123L93.335 71.5649H101.924L107.725 87.2649L113.481 71.5649H121.801Z" fill="#FAFAFA"/>
<path d="M82.505 71.2949C85.4432 71.2949 87.7816 72.2547 89.5203 74.174C91.2892 76.0634 92.1735 78.6726 92.1735 82.0016V96.6671H84.5287V83.0362C84.5287 81.3568 84.0941 80.0522 83.2245 79.1225C82.3553 78.1928 81.1861 77.7279 79.7169 77.7279C78.248 77.7279 77.0788 78.1928 76.2093 79.1225C75.3401 80.0522 74.9052 81.3568 74.9052 83.0362V96.6671H67.2154V71.5649H74.9052V74.8938C75.6848 73.7842 76.7341 72.9144 78.053 72.2846C79.3723 71.6248 80.8563 71.2949 82.505 71.2949Z" fill="#FAFAFA"/>
<path d="M51.3539 97.027C48.8954 97.027 46.6771 96.5019 44.6984 95.4524C42.7496 94.4027 41.2056 92.9031 40.0666 90.9539C38.9571 89.0044 38.4027 86.7251 38.4027 84.1159C38.4027 81.5367 38.9722 79.2724 40.1115 77.323C41.2506 75.3437 42.8097 73.8292 44.7884 72.7795C46.767 71.7298 48.9853 71.205 51.4439 71.205C53.9021 71.205 56.1207 71.7298 58.0994 72.7795C60.078 73.8292 61.6369 75.3437 62.7762 77.323C63.9152 79.2724 64.485 81.5367 64.485 84.1159C64.485 86.6951 63.9004 88.9744 62.7312 90.9539C61.5919 92.9031 60.018 94.4027 58.0094 95.4524C56.0308 96.5019 53.8122 97.027 51.3539 97.027ZM51.3539 90.3691C52.8228 90.3691 54.0669 89.8292 55.0864 88.7494C56.1355 87.6698 56.6603 86.1253 56.6603 84.1159C56.6603 82.1065 56.1506 80.562 55.1314 79.4824C54.142 78.4027 52.9128 77.8629 51.4439 77.8629C49.9448 77.8629 48.7007 78.4027 47.7114 79.4824C46.7221 80.532 46.2274 82.0766 46.2274 84.1159C46.2274 86.1253 46.707 87.6698 47.6664 88.7494C48.6557 89.8292 49.8847 90.3691 51.3539 90.3691Z" fill="#FAFAFA"/>
<path d="M35.7509 65.0869V96.6671H28.061V77.7279L21.0008 96.6671H14.795L7.68981 77.6829V96.6671H0V65.0869H9.08387L17.9429 86.95L26.712 65.0869H35.7509Z" fill="#FAFAFA"/>
<path d="M169.203 75.1187C169.952 73.9491 170.986 73.0044 172.306 72.2846C173.625 71.5649 175.169 71.205 176.937 71.205C179.006 71.205 180.88 71.7298 182.559 72.7795C184.238 73.8292 185.557 75.3287 186.516 77.2781C187.505 79.2275 188 81.4917 188 84.0709C188 86.6501 187.505 88.9294 186.516 90.9089C185.557 92.8581 184.238 94.3728 182.559 95.4524C180.88 96.5019 179.006 97.027 176.937 97.027C175.199 97.027 173.655 96.6671 172.306 95.9473C170.986 95.2275 169.952 94.2976 169.203 93.1582V108.633H161.513V71.5649H169.203V75.1187ZM180.175 84.0709C180.175 82.1515 179.636 80.652 178.556 79.5723C177.507 78.4627 176.203 77.9079 174.644 77.9079C173.115 77.9079 171.811 78.4627 170.732 79.5723C169.682 80.682 169.158 82.1965 169.158 84.1159C169.158 86.0353 169.682 87.5498 170.732 88.6595C171.811 89.7691 173.115 90.3241 174.644 90.3241C176.173 90.3241 177.477 89.7691 178.556 88.6595C179.636 87.5199 180.175 85.9903 180.175 84.0709Z" fill="#FAFAFA"/>
<path d="M153.467 68.9557C152.118 68.9557 151.009 68.5658 150.139 67.786C149.3 66.9763 148.88 65.9866 148.88 64.817C148.88 63.6174 149.3 62.6277 150.139 61.8479C151.009 61.0382 152.118 60.6333 153.467 60.6333C154.786 60.6333 155.865 61.0382 156.705 61.8479C157.574 62.6277 158.009 63.6174 158.009 64.817C158.009 65.9866 157.574 66.9763 156.705 67.786C155.865 68.5658 154.786 68.9557 153.467 68.9557ZM157.289 71.5649V96.6671H149.599V71.5649H157.289Z" fill="#FAFAFA"/>
<path d="M147.089 65.0869V71.25H138.725V96.6671H131.035V71.25H122.671V65.0869H147.089Z" fill="#FAFAFA"/>
</svg>
