<svg width="92" height="129" viewBox="0 0 92 129" fill="none" xmlns="http://www.w3.org/2000/svg">
<rect width="92" height="129" fill="#1E1E1E"/>
<g clip-path="url(#clip0_92_324)">
<rect width="1440" height="5081.63" transform="translate(-778 -828)" fill="#FAFAFA"/>
<path d="M-42 -19.3668C-42 -25.9942 -36.6274 -31.3668 -30 -31.3668H458C464.627 -31.3668 470 -25.9942 470 -19.3668V148.633C470 155.261 464.627 160.633 458 160.633H-30C-36.6274 160.633 -42 155.261 -42 148.633V-19.3668Z" fill="#D4C1F9"/>
<g clip-path="url(#clip1_92_324)">
<mask id="mask0_92_324" style="mask-type:luminance" maskUnits="userSpaceOnUse" x="0" y="0" width="92" height="129">
<path d="M91.7617 0.633179H0.238342V128.633H91.7617V0.633179Z" fill="white"/>
</mask>
<g mask="url(#mask0_92_324)">
<path d="M81.8134 98.7886C77.7718 120.343 59.4853 120.343 50.6425 118.022C55.1523 111.92 52.5215 103.32 50.6425 99.7834C53.8363 95.2742 54.5576 86.0642 54.4318 78.5606C54.38 75.4687 54.1843 72.6666 53.9585 70.6021C59.7948 71.9285 70.0965 70.4913 74.5181 69.6072C75.7988 72.5725 76.8977 75.3354 77.8289 77.8974C81.4785 87.9424 82.5436 94.8929 81.8134 98.7886Z" fill="#5EE9B5" stroke="#17093F" stroke-width="2"/>
<path d="M6.20724 111.058C-1.75131 97.2632 7.75472 89.172 13.5026 87.1824C11.955 91.1616 9.78859 99.7834 13.5026 102.436C18.1451 105.752 22.4559 109.068 31.4093 105.089C31.4093 114.374 35.7202 117.027 32.4041 120.343C24.4456 121.006 15.1606 122.001 6.20724 111.058Z" fill="#9464F0" stroke="#17093F" stroke-width="2"/>
<path d="M84.4663 39.7627C96.0725 49.0476 89.3004 63.6201 74.8497 68.9441L89.4404 87.8456C90.4352 90.2776 91.8279 95.5389 89.4404 97.1306C87.8341 98.2017 87.2385 97.3309 87.088 96.1749C86.9354 97.6121 86.4261 99.1202 85.1295 99.1202C81.8134 99.1202 81.8134 97.7938 82.145 91.8249C80.8186 85.5244 79.8238 82.8715 74.8497 68.9441C68.5492 71.2653 65.5649 71.9285 53.9587 70.6021C54.5114 79.3346 54.6219 98.1254 49.9794 99.7834C52.1901 102.879 55.9483 112.716 48.9846 119.017C50.9742 120.122 55.4949 123.344 53.9586 125.649C51.9689 128.633 34.0622 127.638 33.399 124.654C33.399 121.78 34.3938 117.359 33.399 115.369C33.1024 114.776 29.8582 109.129 32.0726 102.829C30.9902 102.369 30.1261 101.434 29.7755 100.439C19.0139 99.3338 38.3765 76.2129 39.6996 65.8424C16.6816 50.5448 28.9002 15.9099 45.337 13.2342C52.5997 12.0519 62.9596 11.1104 71.202 14.4675C79.142 17.7014 85.1169 24.9241 84.4663 39.7627Z" fill="#9464F0"/>
<path d="M74.8498 68.9441C89.3005 63.6201 96.0726 49.0476 84.4663 39.7627C85.1169 24.9241 79.1421 17.7014 71.2021 14.4675C62.9597 11.1104 52.5998 12.0519 45.337 13.2342C28.9002 15.9099 16.6817 50.5448 39.6996 65.8424M74.8498 68.9441C68.5492 71.2653 65.5649 71.9285 53.9588 70.6021C54.5114 79.3346 54.6219 98.1254 49.9794 99.7834C52.1901 102.879 55.9483 112.716 48.9846 119.017C50.9742 120.122 55.495 123.344 53.9586 125.649C51.969 128.633 34.0623 127.638 33.3991 124.654C33.3991 121.78 34.3939 117.359 33.3991 115.369C33.1025 114.776 29.8583 109.129 32.0726 102.829M74.8498 68.9441L89.4404 87.8456C90.4352 90.2776 91.828 95.5389 89.4404 97.1306C87.0529 98.7223 86.8983 96.025 87.1192 94.4778C87.2299 96.025 86.9865 99.1202 85.1295 99.1202C81.8135 99.1202 81.8135 97.7938 82.1451 91.8249C80.8187 85.5244 79.8238 82.8715 74.8498 68.9441ZM39.6996 65.8424C40.8294 66.5933 42.0441 67.2973 43.3474 67.9493M39.6996 65.8424C38.3732 76.2394 18.9153 99.4518 29.8583 100.447M46.6633 83.2031L42.684 92.4881C42.684 95.5833 41.9545 101.773 39.0364 101.773C36.1182 101.773 35.8309 100.004 36.0519 99.1202C36.0519 100.668 35.1897 103.365 33.0674 103.1C30.4146 102.768 28.425 99.4518 30.4146 97.7938" stroke="#17093F" stroke-width="2"/>
<path d="M50.9741 127.638C51.0846 126.533 50.7751 124.123 48.6528 123.327" stroke="#17093F" stroke-width="2"/>
<path d="M24.114 83.7768C22.5223 77.9405 16.3765 78.2502 13.5026 79.1343C13.675 78.3298 13.7955 77.8841 13.5026 77.1447C11.6781 72.5413 5.05932 71.648 1.6513 71.1877L1.56476 71.1757C6.39257 63.0288 18.3621 57.3718 23.4508 60.5644C23.4508 60.5644 24.7321 61.4272 25.1088 61.8908C25.4659 62.3303 26.1273 62.7878 26.4352 63.2172C29.8449 67.9724 29.9141 72.3629 35.3886 74.4918L32.0725 80.7923C29.1297 80.3394 26.2997 81.947 24.7772 83.1839C24.5154 83.3968 24.2924 83.5984 24.114 83.7768Z" fill="#2B8761"/>
<path d="M23.4508 60.5644C23.4508 60.5644 24.7321 61.4272 25.1088 61.8908C25.4659 62.3303 26.1273 62.7878 26.4352 63.2172M23.4508 60.5644C18.3621 57.3718 6.39257 63.0288 1.56476 71.1757C4.94601 71.6327 11.6625 72.5022 13.5026 77.1447M23.4508 60.5644C18.4767 65.7114 15.4922 73.1654 13.5026 77.1447M26.4352 63.2172C29.8449 67.9724 29.9141 72.3629 35.3886 74.4918L32.0725 80.7923C29.1297 80.3394 26.2997 81.947 24.7772 83.1839M26.4352 63.2172C26.4352 68.505 25.1088 78.8345 24.7772 83.1839M13.5026 77.1447C13.7955 77.8841 13.675 78.3298 13.5026 79.1343C16.3765 78.2502 22.5223 77.9405 24.114 83.7768C24.2924 83.5984 24.5154 83.3968 24.7772 83.1839" stroke="#17093F" stroke-width="2"/>
<path d="M75.513 112.053C66.7586 117.359 56.722 116.253 53.2954 115.037L51.9689 117.359C56.6114 118.464 68.6156 118.95 75.513 112.053Z" fill="#2B8761"/>
<path d="M54.6218 79.2238C59.1537 80.1079 71.4674 81.1471 77.8342 78.229M53.9586 88.8404C58.9327 90.0561 71.7327 91.7585 80.4871 88.8404M51.9689 97.4622C55.285 99.1202 67.4881 101.441 81.8135 98.7886M53.2954 109.068C62.5803 110.726 70.2073 111.39 78.4974 108.405M53.2954 115.037C56.722 116.253 66.7586 117.359 75.513 112.053C68.6156 118.95 56.6114 118.464 51.9689 117.359L53.2954 115.037Z" stroke="#2B8761" stroke-width="2"/>
<path d="M67.2228 118.022C77.8342 113.512 81.261 104.205 81.8134 99.7834C84.4663 99.7834 88.4456 106.416 81.8134 117.027C88.4456 120.343 89.1088 123.327 87.1191 125.317C82.4767 126.312 73.64 125.317 70.8704 125.317C65.5647 125.317 66.2279 119.68 67.2228 118.022Z" fill="#9464F0" stroke="#17093F" stroke-width="2"/>
<path d="M85.1295 125.649C85.3504 124.654 85.3948 122.598 83.8031 122.333" stroke="#17093F" stroke-width="2"/>
<path d="M81.8134 98.7886C77.7718 120.343 59.4853 120.343 50.6425 118.022C55.1523 111.92 52.5215 103.32 50.6425 99.7834C53.8363 95.2742 54.5576 86.0642 54.4318 78.5606C54.38 75.4687 54.1843 72.6666 53.9585 70.6021C59.7948 71.9285 70.0965 70.4913 74.5181 69.6072C75.7988 72.5725 76.8977 75.3354 77.8289 77.8974C81.4785 87.9424 82.5436 94.8935 81.8134 98.7886Z" stroke="#17093F" stroke-width="2"/>
<path d="M80.8187 59.659C75.9554 62.5329 63.5751 65.7606 52.9637 55.6798M52.9637 55.6798C53.6269 53.6901 52.9637 53.3585 51.6373 54.3533C50.4509 55.2431 51.4162 55.1271 52.9637 55.6798Z" stroke="#17093F" stroke-width="2"/>
<path d="M68.8808 49.711C69.8756 48.9649 71.202 52.0322 70.8704 52.6954L68.8808 51.7006C68.2176 51.0374 67.5544 50.7058 68.8808 49.711Z" fill="#17093F" stroke="#17093F" stroke-width="2"/>
<path d="M80.6078 49.8103C79.9028 49.172 78.9624 51.7964 79.1971 52.3638L80.6078 51.5126C81.0773 50.9452 81.5476 50.6615 80.6078 49.8103Z" fill="#17093F" stroke="#17093F" stroke-width="2"/>
<mask id="mask1_92_324" style="mask-type:luminance" maskUnits="userSpaceOnUse" x="73" y="35" width="9" height="10">
<path d="M81.1503 35.1202H73.1917V44.4052H81.1503V35.1202Z" fill="white"/>
</mask>
<g mask="url(#mask1_92_324)">
<path d="M77.171 43.5859C73.7223 43.5859 72.6612 35.6664 77.171 35.6664C81.5462 35.6664 80.6197 43.5859 77.171 43.5859Z" fill="#28106F" stroke="#28106F" stroke-width="2"/>
<path d="M77.8401 39.0995C77.0701 39.0995 76.8334 37.1099 77.8401 37.1099C78.817 37.1099 78.6101 39.0995 77.8401 39.0995Z" fill="#FAFAFA" stroke="#FAFAFA" stroke-width="2"/>
</g>
<path d="M59.596 1.62799C62.912 1.62799 70.8704 9.91815 70.8704 13.5658C66.8912 12.77 63.9068 11.9078 61.254 11.9078C59.596 8.48116 56.9431 1.62799 59.596 1.62799Z" fill="#28106F"/>
<path d="M45.3369 15.5555C39.2353 6.53576 33.0675 3.28602 31.0778 3.94924C29.0882 5.93887 32.4042 15.2239 36.3835 20.5296C42.0208 20.5296 43.3472 18.8715 45.3369 15.5555Z" fill="#28106F"/>
<path d="M24.7772 20.5295C27.4301 19.203 31.4093 21.0821 33.0674 22.1875L29.4197 28.1564C26.7669 26.1668 22.1244 21.8559 24.7772 20.5295Z" fill="#28106F"/>
<path d="M20.4663 34.7887C21.5275 32.1358 25.9931 32.578 28.0933 33.1307L26.4352 40.0944C24.0034 39.4312 19.4052 37.4415 20.4663 34.7887Z" fill="#28106F"/>
<path d="M22.7874 50.7057C22.2503 49.0942 25.2192 47.5002 27.0983 46.7264L28.7563 52.6954C24.4454 54.0218 23.4506 52.6954 22.7874 50.7057Z" fill="#28106F"/>
<path d="M18.4767 100.115C17.7649 99.166 14.7185 100.557 13.171 101.441C12.6404 101.73 17.2608 103.994 19.4715 105.421C19.4715 103.873 19.4715 101.441 18.4767 100.115Z" fill="#28106F"/>
<path d="M23.0774 106.416C23.0774 104.758 24.556 103.099 25.4403 102.768C26.5014 102.768 28.6041 104.537 29.0463 105.421C26.8356 106.636 23.0774 107.079 23.0774 106.416Z" fill="#28106F"/>
<path d="M59.596 1.62799C62.912 1.62799 70.8704 9.91815 70.8704 13.5658C66.8912 12.77 63.9068 11.9078 61.254 11.9078C59.596 8.48116 56.9431 1.62799 59.596 1.62799Z" stroke="#17093F" stroke-width="2"/>
<path d="M45.3369 15.5555C39.2353 6.53576 33.0675 3.28602 31.0778 3.94924C29.0882 5.93887 32.4042 15.2239 36.3835 20.5296C42.0208 20.5296 43.3472 18.8715 45.3369 15.5555Z" stroke="#17093F" stroke-width="2"/>
<path d="M24.7772 20.5295C27.4301 19.203 31.4093 21.0821 33.0674 22.1875L29.4197 28.1564C26.7669 26.1668 22.1244 21.8559 24.7772 20.5295Z" stroke="#17093F" stroke-width="2"/>
<path d="M20.4663 34.7887C21.5275 32.1358 25.9931 32.578 28.0933 33.1307L26.4352 40.0944C24.0034 39.4312 19.4052 37.4415 20.4663 34.7887Z" stroke="#17093F" stroke-width="2"/>
<path d="M22.7874 50.7057C22.2503 49.0942 25.2192 47.5002 27.0983 46.7264L28.7563 52.6954C24.4454 54.0218 23.4506 52.6954 22.7874 50.7057Z" stroke="#17093F" stroke-width="2"/>
<path d="M18.4767 100.115C17.7649 99.166 14.7185 100.557 13.171 101.441C12.6404 101.73 17.2608 103.994 19.4715 105.421C19.4715 103.873 19.4715 101.441 18.4767 100.115Z" stroke="#17093F" stroke-width="2"/>
<path d="M23.0774 106.416C23.0774 104.758 24.556 103.099 25.4403 102.768C26.5014 102.768 28.6041 104.537 29.0463 105.421C26.8356 106.636 23.0774 107.079 23.0774 106.416Z" stroke="#17093F" stroke-width="2"/>
<path d="M51.6372 46.0632C47.3263 46.0632 45.9999 36.4467 51.6372 36.4467C57.1062 36.4467 55.948 46.0632 51.6372 46.0632Z" fill="#28106F" stroke="#28106F" stroke-width="2"/>
<path d="M53.3013 40.4259C52.5314 40.4259 52.2946 38.4363 53.3013 38.4363C54.278 38.4363 54.0712 40.4259 53.3013 40.4259Z" fill="#FAFAFA" stroke="#FAFAFA" stroke-width="2"/>
<path d="M19.4715 119.348C28.0933 118.685 29.1986 111.058 28.4249 107.079C29.6407 106.305 29.4197 106.747 30.4145 106.084C31.2423 105.532 30.7461 110.726 31.4093 112.384C32.0725 114.042 33.9771 117.775 32.4041 119.348C30.7461 121.006 23.1192 120.343 19.4715 119.348Z" fill="#7C59BF"/>
<path d="M82.4767 100.778C86.1243 103.431 85.1295 111.058 80.8186 117.359L83.1399 118.685C78.4974 120.011 74.5181 122.333 75.8445 124.986L69.8756 124.654C68.6599 123.991 66.5594 123.659 67.5544 118.685C75.8445 115.701 80.8186 106.636 82.4767 100.778Z" fill="#7C59BF"/>
<path d="M45.6684 127.638C46 126.754 46.2653 124.787 44.6736 123.991" stroke="#17093F" stroke-width="2"/>
<path d="M81.8135 125.317C82.0343 124.875 82.1451 123.792 80.8187 122.996" stroke="#17093F" stroke-width="2"/>
</g>
</g>
</g>
<defs>
<clipPath id="clip0_92_324">
<rect width="1440" height="5081.63" fill="white" transform="translate(-778 -828)"/>
</clipPath>
<clipPath id="clip1_92_324">
<rect width="128" height="128" fill="white" transform="translate(-18 0.633179)"/>
</clipPath>
</defs>
</svg>
